<?xml version="1.0" encoding="UTF-8" standalone="no"?>
<svg
   xmlns:dc="http://purl.org/dc/elements/1.1/"
   xmlns:cc="http://creativecommons.org/ns#"
   xmlns:rdf="http://www.w3.org/1999/02/22-rdf-syntax-ns#"
   xmlns:svg="http://www.w3.org/2000/svg"
   xmlns="http://www.w3.org/2000/svg"
   xmlns:xlink="http://www.w3.org/1999/xlink"
   xmlns:sodipodi="http://sodipodi.sourceforge.net/DTD/sodipodi-0.dtd"
   xmlns:inkscape="http://www.inkscape.org/namespaces/inkscape"
   width="100%"
   height="100%"
   viewBox="0 0 183.88557 100.73083"
   preserveAspectRatio="xMidYMid meet"
   version="1.1"
   id="svg8"
   sodipodi:docname="main-blocks.svg"
   inkscape:version="0.92.4 (5da689c313, 2019-01-14)">
  <sodipodi:namedview
     pagecolor="#ffffff"
     bordercolor="#666666"
     borderopacity="1"
     objecttolerance="10"
     gridtolerance="10"
     guidetolerance="10"
     inkscape:pageopacity="0"
     inkscape:pageshadow="2"
     inkscape:window-width="1920"
     inkscape:window-height="1016"
     id="namedview1013"
     showgrid="false"
     inkscape:zoom="1.851797"
     inkscape:cx="346.42027"
     inkscape:cy="190.35747"
     inkscape:window-x="0"
     inkscape:window-y="27"
     inkscape:window-maximized="1"
     inkscape:current-layer="layer2" />
  <defs
     id="defs2">
    <linearGradient
       id="linearGradient2795">
      <stop
         id="stop2797"
         offset="0"
         style="stop-color:#b8b8b8;stop-opacity:0.49803922" />
      <stop
         id="stop2799"
         offset="1"
         style="stop-color:#7f7f7f;stop-opacity:0" />
    </linearGradient>
    <linearGradient
       id="linearGradient2787">
      <stop
         id="stop2789"
         offset="0"
         style="stop-color:#7f7f7f;stop-opacity:0.5" />
      <stop
         id="stop2791"
         offset="1"
         style="stop-color:#7f7f7f;stop-opacity:0" />
    </linearGradient>
    <linearGradient
       id="linearGradient3676">
      <stop
         id="stop3678"
         offset="0"
         style="stop-color:#b2b2b2;stop-opacity:0.5" />
      <stop
         id="stop3680"
         offset="1"
         style="stop-color:#b3b3b3;stop-opacity:0" />
    </linearGradient>
    <linearGradient
       id="linearGradient3236">
      <stop
         id="stop3244"
         offset="0"
         style="stop-color:#f4f4f4;stop-opacity:1" />
      <stop
         id="stop3240"
         offset="1"
         style="stop-color:#ffffff;stop-opacity:1" />
    </linearGradient>
    <linearGradient
       id="linearGradient4671">
      <stop
         id="stop4673"
         offset="0"
         style="stop-color:#ffd43b;stop-opacity:1" />
      <stop
         id="stop4675"
         offset="1"
         style="stop-color:#ffe873;stop-opacity:1" />
    </linearGradient>
    <linearGradient
       id="linearGradient4689">
      <stop
         id="stop4691"
         offset="0"
         style="stop-color:#5a9fd4;stop-opacity:1" />
      <stop
         id="stop4693"
         offset="1"
         style="stop-color:#306998;stop-opacity:1" />
    </linearGradient>
    <linearGradient
       gradientTransform="translate(100.2702,99.61116)"
       gradientUnits="userSpaceOnUse"
       xlink:href="#linearGradient4671"
       id="linearGradient2987"
       y2="144.75717"
       x2="-65.308502"
       y1="144.75717"
       x1="224.23996" />
    <linearGradient
       gradientTransform="translate(100.2702,99.61116)"
       gradientUnits="userSpaceOnUse"
       xlink:href="#linearGradient4689"
       id="linearGradient2990"
       y2="76.313133"
       x2="26.670298"
       y1="77.475983"
       x1="172.94208" />
    <linearGradient
       gradientTransform="matrix(0.562541,0,0,0.567972,-11.5974,-7.60954)"
       gradientUnits="userSpaceOnUse"
       xlink:href="#linearGradient4671"
       id="linearGradient2255"
       y2="144.75717"
       x2="-65.308502"
       y1="144.75717"
       x1="224.23996" />
    <linearGradient
       gradientTransform="matrix(0.562541,0,0,0.567972,-11.5974,-7.60954)"
       gradientUnits="userSpaceOnUse"
       xlink:href="#linearGradient4689"
       id="linearGradient2258"
       y2="76.313133"
       x2="26.670298"
       y1="76.176224"
       x1="172.94208" />
    <radialGradient
       gradientTransform="matrix(1,0,0,0.177966,0,108.7434)"
       gradientUnits="userSpaceOnUse"
       xlink:href="#linearGradient2795"
       id="radialGradient2801"
       fy="132.28575"
       fx="61.518883"
       r="29.036913"
       cy="132.28575"
       cx="61.518883" />
    <linearGradient
       gradientTransform="matrix(0.562541,0,0,0.567972,-9.399749,-5.305317)"
       gradientUnits="userSpaceOnUse"
       xlink:href="#linearGradient4671"
       id="linearGradient1475"
       y2="137.27299"
       x2="112.03144"
       y1="192.35176"
       x1="150.96111" />
    <linearGradient
       gradientTransform="matrix(0.562541,0,0,0.567972,-9.399749,-5.305317)"
       gradientUnits="userSpaceOnUse"
       xlink:href="#linearGradient4689"
       id="linearGradient1478"
       y2="114.39767"
       x2="135.66525"
       y1="20.603781"
       x1="26.648937" />
    <radialGradient
       gradientTransform="matrix(2.382716e-8,-0.296405,1.43676,4.683673e-7,-128.544,150.5202)"
       gradientUnits="userSpaceOnUse"
       xlink:href="#linearGradient2795"
       id="radialGradient1480"
       fy="132.28575"
       fx="61.518883"
       r="29.036913"
       cy="132.28575"
       cx="61.518883" />
  </defs>
  <metadata
     id="metadata5">
    <rdf:RDF>
      <cc:Work
         rdf:about="">
        <dc:format>image/svg+xml</dc:format>
        <dc:type
           rdf:resource="http://purl.org/dc/dcmitype/StillImage" />
        <dc:title></dc:title>
      </cc:Work>
    </rdf:RDF>
  </metadata>
  <g
     id="layer1"
     transform="translate(-9.5248287,-34.003993)" />
  <g
     inkscape:groupmode="layer"
     id="layer2"
     inkscape:label="base"
     style="display:inline">
    <rect
       transform="translate(-9.5248288,-34.003993)"
       style="fill:#4d4466;fill-opacity:1;stroke:#000000;stroke-width:0.52916664;stroke-miterlimit:4;stroke-dasharray:none;stroke-dashoffset:0"
       id="rect815"
       width="183.31844"
       height="30.994047"
       x="9.8273811"
       y="63.410713" />
    <g
       id="g1041"
       transform="matrix(0.05908892,0,0,0.05908892,6.8361692,32.646443)">
      <path
         id="path997"
         d="m 102.681,291.324 c 0,0 -14.178,8.245 10.09,11.035 29.4,3.354 44.426,2.873 76.825,-3.259 0,0 8.518,5.341 20.414,9.967 -72.63,31.128 -164.376,-1.803 -107.329,-17.743"
         style="fill:#5382a1"
         inkscape:connector-curvature="0" />
      <path
         id="path999"
         d="m 93.806,250.704 c 0,0 -15.902,11.771 8.384,14.283 31.406,3.24 56.208,3.505 99.125,-4.759 0,0 5.936,6.018 15.27,9.309 -87.814,25.678 -185.623,2.025 -122.779,-18.833"
         style="fill:#5382a1"
         inkscape:connector-curvature="0" />
      <path
         id="path1001"
         d="m 168.625,181.799 c 17.896,20.604 -4.702,39.145 -4.702,39.145 0,0 45.441,-23.458 24.572,-52.833 -19.491,-27.394 -34.438,-41.005 46.479,-87.934 0,0 -127.013,31.722 -66.349,101.622"
         style="fill:#f8981d"
         inkscape:connector-curvature="0" />
      <path
         id="path1003"
         d="m 264.684,321.369 c 0,0 10.492,8.645 -11.555,15.333 -41.923,12.7 -174.488,16.535 -211.314,0.506 -13.238,-5.759 11.587,-13.751 19.396,-15.428 8.144,-1.766 12.798,-1.437 12.798,-1.437 -14.722,-10.371 -95.157,20.364 -40.857,29.166 148.084,24.015 269.943,-10.814 231.532,-28.14"
         style="fill:#5382a1"
         inkscape:connector-curvature="0" />
      <path
         id="path1005"
         d="m 109.499,208.617 c 0,0 -67.431,16.016 -23.879,21.832 18.389,2.462 55.047,1.905 89.193,-0.956 27.906,-2.354 55.927,-7.359 55.927,-7.359 0,0 -9.84,4.214 -16.959,9.075 -68.475,18.009 -200.756,9.631 -162.674,-8.79 32.206,-15.568 58.392,-13.802 58.392,-13.802"
         style="fill:#5382a1"
         inkscape:connector-curvature="0" />
      <path
         id="path1007"
         d="m 230.462,276.231 c 69.608,-36.171 37.424,-70.931 14.96,-66.248 -5.506,1.146 -7.961,2.139 -7.961,2.139 0,0 2.044,-3.202 5.948,-4.588 44.441,-15.624 78.619,46.081 -14.346,70.52 0,0.001 1.077,-0.962 1.399,-1.823"
         style="fill:#5382a1"
         inkscape:connector-curvature="0" />
      <path
         id="path1009"
         d="m 188.495,4.399 c 0,0 38.55,38.563 -36.563,97.862 -60.233,47.568 -13.735,74.69 -0.025,105.678 C 116.748,176.217 90.946,148.292 108.256,122.302 133.663,84.151 204.049,65.654 188.495,4.399"
         style="fill:#f8981d"
         inkscape:connector-curvature="0" />
      <path
         id="path1011"
         d="m 116.339,374.246 c 66.815,4.277 169.417,-2.373 171.847,-33.988 0,0 -4.671,11.985 -55.219,21.503 -57.028,10.732 -127.364,9.479 -169.081,2.601 10e-4,-0.001 8.54,7.068 52.453,9.884"
         style="fill:#5382a1"
         inkscape:connector-curvature="0" />
    </g>
    <text
       transform="translate(-9.5248288,-34.003993)"
       id="text1183"
       y="82.669785"
       x="101.3755"
       style="font-style:normal;font-weight:normal;font-size:10.58333302px;line-height:1.25;font-family:sans-serif;text-align:center;letter-spacing:0px;word-spacing:0px;text-anchor:middle;fill:#ffffff;fill-opacity:1;stroke:#ffffff;stroke-width:0.26458332;stroke-opacity:1"
       xml:space="preserve"><tspan
         style="stroke-width:0.26458332"
         id="tspan1181"
         y="82.669785"
         x="101.3755"><tspan
           style="stroke-width:0.26458332"
           id="tspan1179"
           y="82.669785"
           x="101.3755">Core</tspan></tspan></text>
  </g>
  <g
     inkscape:groupmode="layer"
     id="layer3"
     inkscape:label="jsp"
     style="display:inline">
    <rect
       transform="translate(-9.5248288,-34.003993)"
       style="fill:#ff4d4d;stroke:#000000;stroke-width:0.60510486;stroke-miterlimit:4;stroke-dasharray:none;stroke-dashoffset:0"
       id="rect825"
       width="92.564713"
       height="29.104168"
       x="9.8273811"
       y="34.306545" />
    <text
       transform="translate(-9.5248288,-34.003993)"
       id="text1177"
       y="51.569057"
       x="56.339699"
       style="font-style:normal;font-weight:normal;font-size:10.58333302px;line-height:1.25;font-family:sans-serif;text-align:center;letter-spacing:0px;word-spacing:0px;text-anchor:middle;fill:#000000;fill-opacity:1;stroke:none;stroke-width:0.26458332"
       xml:space="preserve"><tspan
         style="stroke-width:0.26458332"
         id="tspan1175"
         y="51.569057"
         x="56.339699"><tspan
           id="tspan1173"
           style="stroke:#000000;stroke-width:0.26458332;stroke-opacity:1"
           y="51.569057"
           x="56.339699">JSP + Spring</tspan></tspan></text>
  </g>
  <g
     inkscape:groupmode="layer"
     id="layer4"
     inkscape:label="spark"
     style="display:inline">
    <rect
       transform="translate(-9.5248288,-34.003993)"
       style="fill:#ffff66;stroke:#000000;stroke-width:0.52916664;stroke-miterlimit:4;stroke-dasharray:none;stroke-dashoffset:0"
       id="rect837"
       width="90.753723"
       height="29.104168"
       x="102.39209"
       y="34.306545"
       ry="0" />
    <g
       id="g1188"
       transform="matrix(0.04038628,0,0,0.04038628,142.0844,3.4748729)">
      <path
         id="path1180"
         d="m 666.3,296.5 c 0,-32.5 -40.7,-63.3 -103.1,-82.4 14.4,-63.6 8,-114.2 -20.2,-130.4 -6.5,-3.8 -14.1,-5.6 -22.4,-5.6 v 22.3 c 4.6,0 8.3,0.9 11.4,2.6 13.6,7.8 19.5,37.5 14.9,75.7 -1.1,9.4 -2.9,19.3 -5.1,29.4 -19.6,-4.8 -41,-8.5 -63.5,-10.9 -13.5,-18.5 -27.5,-35.3 -41.6,-50 32.6,-30.3 63.2,-46.9 84,-46.9 V 78 c 0,0 0,0 0,0 -27.5,0 -63.5,19.6 -99.9,53.6 C 384.4,97.8 348.4,78.4 320.9,78.4 v 22.3 c 20.7,0 51.4,16.5 84,46.6 -14,14.7 -28,31.4 -41.3,49.9 -22.6,2.4 -44,6.1 -63.6,11 -2.3,-10 -4,-19.7 -5.2,-29 -4.7,-38.2 1.1,-67.9 14.6,-75.8 3,-1.8 6.9,-2.6 11.5,-2.6 V 78.5 c 0,0 0,0 0,0 -8.4,0 -16,1.8 -22.6,5.6 -28.1,16.2 -34.4,66.7 -19.9,130.1 -62.2,19.2 -102.7,49.9 -102.7,82.3 0,32.5 40.7,63.3 103.1,82.4 -14.4,63.6 -8,114.2 20.2,130.4 6.5,3.8 14.1,5.6 22.5,5.6 27.5,0 63.5,-19.6 99.9,-53.6 36.4,33.8 72.4,53.2 99.9,53.2 8.4,0 16,-1.8 22.6,-5.6 28.1,-16.2 34.4,-66.7 19.9,-130.1 62,-19.1 102.5,-49.9 102.5,-82.3 z M 536.1,229.8 c -3.7,12.9 -8.3,26.2 -13.5,39.5 -4.1,-8 -8.4,-16 -13.1,-24 -4.6,-8 -9.5,-15.8 -14.4,-23.4 14.2,2.1 27.9,4.7 41,7.9 z m -45.8,106.5 c -7.8,13.5 -15.8,26.3 -24.1,38.2 -14.9,1.3 -30,2 -45.2,2 -15.1,0 -30.2,-0.7 -45,-1.9 -8.3,-11.9 -16.4,-24.6 -24.2,-38 -7.6,-13.1 -14.5,-26.4 -20.8,-39.8 6.2,-13.4 13.2,-26.8 20.7,-39.9 7.8,-13.5 15.8,-26.3 24.1,-38.2 14.9,-1.3 30,-2 45.2,-2 15.1,0 30.2,0.7 45,1.9 8.3,11.9 16.4,24.6 24.2,38 7.6,13.1 14.5,26.4 20.8,39.8 -6.3,13.4 -13.2,26.8 -20.7,39.9 z m 32.3,-13 c 5.4,13.4 10,26.8 13.8,39.8 -13.1,3.2 -26.9,5.9 -41.2,8 4.9,-7.7 9.8,-15.6 14.4,-23.7 4.6,-8 8.9,-16.1 13,-24.1 z M 421.2,430 c -9.3,-9.6 -18.6,-20.3 -27.8,-32 9,0.4 18.2,0.7 27.5,0.7 9.4,0 18.7,-0.2 27.8,-0.7 -9,11.7 -18.3,22.4 -27.5,32 z m -74.4,-58.9 c -14.2,-2.1 -27.9,-4.7 -41,-7.9 3.7,-12.9 8.3,-26.2 13.5,-39.5 4.1,8 8.4,16 13.1,24 4.7,8 9.5,15.8 14.4,23.4 z M 420.7,163 c 9.3,9.6 18.6,20.3 27.8,32 -9,-0.4 -18.2,-0.7 -27.5,-0.7 -9.4,0 -18.7,0.2 -27.8,0.7 9,-11.7 18.3,-22.4 27.5,-32 z m -74,58.9 c -4.9,7.7 -9.8,15.6 -14.4,23.7 -4.6,8 -8.9,16 -13,24 -5.4,-13.4 -10,-26.8 -13.8,-39.8 13.1,-3.1 26.9,-5.8 41.2,-7.9 z m -90.5,125.2 c -35.4,-15.1 -58.3,-34.9 -58.3,-50.6 0,-15.7 22.9,-35.6 58.3,-50.6 8.6,-3.7 18,-7 27.7,-10.1 5.7,19.6 13.2,40 22.5,60.9 -9.2,20.8 -16.6,41.1 -22.2,60.6 -9.9,-3.1 -19.3,-6.5 -28,-10.2 z M 310,490 c -13.6,-7.8 -19.5,-37.5 -14.9,-75.7 1.1,-9.4 2.9,-19.3 5.1,-29.4 19.6,4.8 41,8.5 63.5,10.9 13.5,18.5 27.5,35.3 41.6,50 -32.6,30.3 -63.2,46.9 -84,46.9 -4.5,-0.1 -8.3,-1 -11.3,-2.7 z m 237.2,-76.2 c 4.7,38.2 -1.1,67.9 -14.6,75.8 -3,1.8 -6.9,2.6 -11.5,2.6 -20.7,0 -51.4,-16.5 -84,-46.6 14,-14.7 28,-31.4 41.3,-49.9 22.6,-2.4 44,-6.1 63.6,-11 2.3,10.1 4.1,19.8 5.2,29.1 z m 38.5,-66.7 c -8.6,3.7 -18,7 -27.7,10.1 -5.7,-19.6 -13.2,-40 -22.5,-60.9 9.2,-20.8 16.6,-41.1 22.2,-60.6 9.9,3.1 19.3,6.5 28.1,10.2 35.4,15.1 58.3,34.9 58.3,50.6 -0.1,15.7 -23,35.6 -58.4,50.6 z"
         style="fill:#61dafb"
         inkscape:connector-curvature="0" />
      <polygon
         id="polygon1182"
         points=""
         style="fill:#61dafb" />
      <circle
         id="circle1184"
         r="45.700001"
         cy="296.5"
         cx="420.89999"
         style="fill:#61dafb" />
      <polygon
         id="polygon1186"
         points=""
         style="fill:#61dafb" />
    </g>
    <g
       id="g2603"
       transform="matrix(0.26458333,0,0,0.26458333,100.81204,2.061305)">
      <path
         id="path2560"
         d="M 38.03,51.597 C 42.787,46.76 103.513,1.076 104.549,2.113 105.346,2.91 60.194,64.354 55.41,69.164 50.627,73.974 42.867,73.921 38.083,69.084 33.273,64.247 33.273,56.407 38.03,51.597 Z"
         enable-background="new    "
         style="opacity:0.5;fill:#ffa64d"
         inkscape:connector-curvature="0" />
      <path
         id="path2562"
         d="m 40.714,49.444 c 5.847,-3.428 65.217,-26.974 65.935,-25.699 0.558,0.983 -47.836,43.797 -53.709,47.198 -5.847,3.402 -13.314,1.355 -16.69,-4.597 -3.376,-5.9 -1.383,-13.473 4.464,-16.902 z"
         enable-background="new    "
         style="opacity:0.3;fill:#ffa64d"
         inkscape:connector-curvature="0" />
      <path
         id="path2564"
         d="M 57.537,66.399 C 60.938,60.5 84.271,0.705 83.022,-0.013 82.04,-0.571 39.571,48.195 36.169,54.095 c -3.375,5.9 -1.329,13.42 4.571,16.796 5.874,3.401 13.395,1.382 16.797,-4.492 z"
         enable-background="new    "
         style="opacity:0.3;fill:#ffa64d"
         inkscape:connector-curvature="0" />
      <path
         id="path2566"
         d="m 43.558,48.195 c 6.538,-1.78 61.363,-8.558 61.762,-7.149 0.292,1.09 -48.952,29.313 -55.49,31.093 -6.538,1.781 -13.235,-2.152 -14.962,-8.77 -1.728,-6.617 2.178,-13.393 8.69,-15.174 z"
         enable-background="new    "
         style="opacity:0.2;fill:#ffa64d"
         inkscape:connector-curvature="0" />
      <path
         id="path2568"
         d="m 43.558,48.195 c 6.538,-1.78 50.839,8.238 51.211,9.621 0.292,1.089 -38.429,12.517 -44.966,14.297 -6.538,1.781 -13.234,-2.152 -14.962,-8.77 -1.701,-6.591 2.205,-13.367 8.717,-15.148 z"
         enable-background="new    "
         style="opacity:0.1;fill:#ffa64d"
         inkscape:connector-curvature="0" />
      <path
         id="path2570"
         d="M 58.786,63.503 C 60.566,56.912 50.6,12.292 49.192,11.92 48.102,11.628 36.781,50.614 35.027,57.205 33.273,63.796 37.179,70.546 43.744,72.247 50.281,74 57.032,70.094 58.786,63.503 Z"
         enable-background="new    "
         style="opacity:0.1;fill:#ffa64d"
         inkscape:connector-curvature="0" />
      <path
         id="path2572"
         d="m 58.786,63.503 c 1.78,-6.591 8.478,-61.815 7.096,-62.188 -1.09,-0.292 -29.074,49.298 -30.854,55.916 -1.754,6.591 2.152,13.341 8.717,15.042 6.536,1.754 13.287,-2.179 15.041,-8.77 z"
         enable-background="new    "
         style="opacity:0.2;fill:#ffa64d"
         inkscape:connector-curvature="0" />
      <path
         id="path2574"
         d="m 50.76,45.378 c -2.844,0 -6.325,0.771 -9.169,3.721 0,-0.771 0.213,-1.754 0.213,-2.073 0,-0.558 -0.425,-0.212 -0.558,-0.983 h -5.023 l -6.989,39.943 c 0,0.319 0.319,0.665 0.558,0.983 h 4.917 l 2.843,-15.068 c 2.179,2.631 4.704,3.269 6.99,3.269 11.135,0 16.052,-11.348 16.052,-19.32 C 60.593,49.949 57.749,45.378 50.76,45.378 Z m -6.113,24.663 c -3.615,0 -5.688,-2.498 -5.688,-5.687 0,-0.319 0.425,-2.95 0.665,-4.465 0.771,-5.793 4.598,-9.381 9.381,-9.381 4.146,0 5.581,2.844 5.581,6.112 0,4.677 -2.737,13.421 -9.939,13.421 z"
         style="fill:#333333"
         inkscape:connector-curvature="0" />
      <path
         id="path2576"
         d="m 27.958,35.439 c -2.073,-0.665 -5.023,-0.983 -7.202,-0.983 -6.325,0 -16.052,3.163 -16.052,12.677 0,9.487 15.174,10.046 15.174,16.371 0,5.129 -5.022,6.325 -8.504,6.325 -2.286,0 -5.129,-0.877 -7.309,-1.967 -0.771,-0.319 -1.647,-1.302 -1.86,-1.302 -0.319,0 -0.877,0.319 -1.196,0.319 L 0,72.432 c 1.86,1.648 7.308,2.737 10.045,2.737 4.811,0 12.677,-1.541 15.175,-8.504 0.425,-1.409 0.877,-2.95 0.877,-4.146 0,-9.594 -15.175,-10.471 -15.175,-16.583 0,-5.129 5.448,-6.006 8.637,-6.006 1.967,0 2.844,-0.106 5.235,0.771 0.771,0.213 2.073,1.409 2.392,1.409 0.212,0 0.771,-0.319 0.983,-0.558 0.425,-1.647 1.089,-5.023 1.089,-5.235 0.002,-0.453 -1.3,-0.878 -1.3,-0.878 z"
         style="fill:#333333"
         inkscape:connector-curvature="0" />
      <path
         id="path2578"
         d="m 79.594,45.378 c -3.614,0 -6.431,0.558 -10.258,2.843 0,0.213 0,0.425 -0.106,0.665 -0.213,1.302 -0.665,3.614 -0.665,3.827 0,0.319 0.771,0.877 0.983,0.877 0.319,0 2.285,-1.542 3.614,-2.073 0.771,-0.425 1.86,-0.771 2.737,-0.877 0.771,-0.212 2.286,-0.212 2.498,-0.212 1.648,0 3.721,0.106 4.146,2.843 v 2.392 c -0.106,0.106 -0.106,0.319 -0.212,0.319 -5.9,1.408 -13.873,-0.319 -18.018,7.654 -0.665,1.302 -0.983,3.269 -0.983,4.704 0,5.129 4.252,6.883 8.079,6.883 2.631,0 5.448,-0.983 8.079,-3.269 0,0.771 -0.106,1.302 -0.106,1.541 0,0.319 0.319,0.771 0.665,1.09 h 4.917 c 0.319,-3.72 3.481,-19.321 3.481,-21.287 -0.028,-5.953 -3.828,-7.92 -8.851,-7.92 z m 1.834,15.813 c -0.665,5.581 -4.465,8.85 -8.398,8.85 -1.967,0 -3.614,-0.771 -3.614,-2.95 0,-6.006 7.096,-5.235 10.258,-5.899 0.425,-0.106 1.196,-0.106 1.754,-0.213 z"
         style="fill:#333333"
         inkscape:connector-curvature="0" />
      <path
         id="path2580"
         d="m 110.688,45.485 c -2.392,0 -5.023,1.196 -6.989,3.481 0.106,-0.771 0.319,-1.86 0.319,-2.179 0,-0.212 -0.425,-0.558 -0.665,-0.771 H 98.33 l -4.81,27.506 c 0.106,0.319 0.425,0.665 0.665,0.983 h 4.917 c 0.771,-4.465 1.249,-9.036 2.285,-13.314 0.744,-3.083 2.95,-10.365 7.867,-10.365 0.212,0 1.302,0.106 1.966,0.319 0.213,0 0.319,0.425 0.665,0.425 0.212,0 0.877,-0.319 1.089,-0.558 0.319,-1.408 0.877,-4.358 0.877,-4.597 0,-0.824 -2.711,-0.93 -3.163,-0.93 z"
         style="fill:#333333"
         inkscape:connector-curvature="0" />
      <path
         id="path2582"
         d="m 141.25,47.106 c -0.106,-0.319 -0.212,-0.771 -0.425,-1.09 h -5.793 l -12.332,11.135 -0.106,-0.106 4.04,-23.147 c -0.106,-0.319 -0.425,-0.665 -0.665,-0.983 h -4.917 l -7.202,40.714 c 0.212,0.319 0.558,0.664 0.771,0.877 h 4.917 l 2.179,-12.012 8.956,12.012 h 6.325 c 0.212,-0.319 0.425,-0.771 0.558,-1.09 L 126.979,59.889 Z"
         style="fill:#333333"
         inkscape:connector-curvature="0" />
    </g>
  </g>
  <g
     inkscape:groupmode="layer"
     id="layer5"
     inkscape:label="backend"
     style="display:inline">
    <rect
       transform="translate(-9.5248288,-34.003993)"
       style="fill:#2e3436;stroke:#000000;stroke-width:0.52916664;stroke-miterlimit:4;stroke-dasharray:none;stroke-dashoffset:0"
       id="rect847"
       width="89.202385"
       height="26.080351"
       x="10.583333"
       y="107.63393"
       ry="0" />
    <g
       id="g2303"
       transform="matrix(0.15577539,0,0,0.15577539,3.7650073,74.974926)">
      <path
         d="m 60.510156,6.3979729 c -4.583653,0.021298 -8.960939,0.4122177 -12.8125,1.09375 C 36.35144,9.4962267 34.291407,13.691825 34.291406,21.429223 v 10.21875 h 26.8125 v 3.40625 h -26.8125 -10.0625 c -7.792459,0 -14.6157592,4.683717 -16.7500002,13.59375 -2.46182,10.212966 -2.5710151,16.586023 0,27.25 1.9059283,7.937852 6.4575432,13.593748 14.2500002,13.59375 h 9.21875 v -12.25 c 0,-8.849902 7.657144,-16.656248 16.75,-16.65625 h 26.78125 c 7.454951,0 13.406253,-6.138164 13.40625,-13.625 v -25.53125 c 0,-7.266339 -6.12998,-12.7247775 -13.40625,-13.9375001 -4.605987,-0.7667253 -9.385097,-1.1150483 -13.96875,-1.09375 z m -14.5,8.2187501 c 2.769547,0 5.03125,2.298646 5.03125,5.125 -2e-6,2.816336 -2.261703,5.09375 -5.03125,5.09375 -2.779476,-1e-6 -5.03125,-2.277415 -5.03125,-5.09375 -1e-6,-2.826353 2.251774,-5.125 5.03125,-5.125 z"
         style="fill:url(#linearGradient1478);fill-opacity:1"
         id="path1948"
         inkscape:connector-curvature="0" />
      <path
         d="m 91.228906,35.054223 v 11.90625 c 0,9.230755 -7.825895,16.999999 -16.75,17 h -26.78125 c -7.335833,0 -13.406249,6.278483 -13.40625,13.625 v 25.531247 c 0,7.26634 6.318588,11.54032 13.40625,13.625 8.487331,2.49561 16.626237,2.94663 26.78125,0 6.750155,-1.95439 13.406253,-5.88761 13.40625,-13.625 V 92.897973 h -26.78125 v -3.40625 h 26.78125 13.406254 c 7.79246,0 10.69625,-5.435408 13.40624,-13.59375 2.79933,-8.398886 2.68022,-16.475776 0,-27.25 -1.92578,-7.757441 -5.60387,-13.59375 -13.40624,-13.59375 z m -15.0625,64.65625 c 2.779478,3e-6 5.03125,2.277417 5.03125,5.093747 -2e-6,2.82635 -2.251775,5.125 -5.03125,5.125 -2.76955,0 -5.03125,-2.29865 -5.03125,-5.125 2e-6,-2.81633 2.261697,-5.093747 5.03125,-5.093747 z"
         style="fill:url(#linearGradient1475);fill-opacity:1"
         id="path1950"
         inkscape:connector-curvature="0" />
      <path
         d="m 110.46717,132.28575 a 48.948285,8.6066789 0 1 1 -97.896571,0 48.948285,8.6066789 0 1 1 97.896571,0 z"
         transform="matrix(0.73406,0,0,0.809524,16.24958,27.00935)"
         style="opacity:0.44382019;fill:url(#radialGradient1480);fill-opacity:1;fill-rule:nonzero;stroke:none;stroke-width:20;stroke-miterlimit:4;stroke-dasharray:none;stroke-opacity:1"
         id="path1894"
         inkscape:connector-curvature="0" />
    </g>
    <text
       transform="translate(-9.5248288,-34.003993)"
       id="text1189"
       y="124.59118"
       x="55.127682"
       style="font-style:normal;font-weight:normal;font-size:10.58333302px;line-height:1.25;font-family:sans-serif;text-align:center;letter-spacing:0px;word-spacing:0px;text-anchor:middle;fill:#ffffff;fill-opacity:1;stroke:#ffffff;stroke-width:0.26458332;stroke-opacity:1"
       xml:space="preserve"><tspan
         style="stroke-width:0.26458332"
         id="tspan1187"
         y="124.59118"
         x="55.127682"><tspan
           style="stroke-width:0.26458332"
           id="tspan1185"
           y="124.59118"
           x="55.127682">Backend</tspan></tspan></text>
  </g>
  <g
     inkscape:groupmode="layer"
     id="layer6"
     inkscape:label="salt"
     style="display:inline">
    <rect
       transform="translate(-9.5248288,-34.003993)"
       style="fill:#000000;fill-opacity:1;stroke:#000000;stroke-width:0.52916664;stroke-miterlimit:4;stroke-dasharray:none;stroke-dashoffset:0"
       id="rect849"
       width="80.130943"
       height="26.458344"
       x="112.63691"
       y="108.0119" />
    <path
       transform="translate(-9.5248288,-34.003993)"
       style="fill:#ffffff;fill-opacity:1;stroke:none;stroke-width:0.02011678"
       d="m 116.3411,111.18692 c 0,0 0,4.40557 0,4.40557 0,0 4.40557,0 4.40557,0 0,0 0,-4.40557 0,-4.40557 0,0 -4.40557,0 -4.40557,0 z m 6.98052,5.57235 c 0,0 0.60351,-0.24664 0.60351,-0.24664 0.3114,-0.10082 0.64012,-0.16152 0.9656,-0.19513 0,0 0.18106,0 0.18106,0 0,0 0.24139,-0.0209 0.24139,-0.0209 1.21768,-0.001 2.6689,0.30718 3.23257,1.52888 0.14846,0.32146 0.21927,0.67491 0.24763,1.02595 0,0 3.35951,0 3.35951,0 0,0 -0.0209,-0.22128 -0.0209,-0.22128 0,0 0,-0.18106 0,-0.18106 -0.10133,-1.03601 -0.41078,-2.01831 -1.07464,-2.83646 -0.91129,-1.12312 -2.40918,-1.82741 -3.81293,-2.08048 0,0 -0.96561,-0.11412 -0.96561,-0.11412 0,0 -0.20116,-0.0184 -0.20116,-0.0184 -0.75821,-0.009 -1.35749,4e-4 -2.11227,0.11222 0,0 -0.44256,0.0769 -0.44256,0.0769 -0.0499,0.0101 -0.14968,0.0218 -0.18066,0.0636 -0.0252,0.0342 -0.0205,0.10779 -0.0205,0.14967 0,0 0,2.95717 0,2.95717 z m -4.16417,1.4283 c 0,0.71997 -0.0167,1.28626 0.20157,1.99155 0.0994,0.32086 0.23275,0.63972 0.41039,0.92537 0.62542,1.00464 1.52685,1.44378 2.60672,1.80387 0.98795,0.32931 1.88615,0.52043 2.89682,0.74252 0,0 1.93121,0.4482 1.93121,0.4482 0.36332,0.10298 0.88192,0.27439 1.20701,0.45705 0.49447,0.27762 0.83967,0.62604 0.88675,1.21545 0.005,0.0663 0.0198,0.11311 0.0148,0.18106 -0.0181,0.25306 -0.054,0.50895 -0.1547,0.74432 -0.38141,0.89036 -1.35206,1.2076 -2.23558,1.33032 0,0 -0.58339,0.0578 -0.58339,0.0578 0,0 -0.60349,0.0201 -0.60349,0.0201 0,0 -0.38223,-0.0201 -0.38223,-0.0201 0,0 -0.52303,-0.055 -0.52303,-0.055 -0.77229,-0.11146 -1.59145,-0.4144 -2.06338,-1.07161 -0.31623,-0.44037 -0.48099,-1.05614 -0.5518,-1.58923 0,0 -3.33939,0 -3.33939,0 0,0.63589 0.0845,1.20056 0.26433,1.81051 0.10867,0.36772 0.3092,0.76182 0.51177,1.0863 0.1887,0.30256 0.42065,0.57353 0.67232,0.82479 1.0694,1.06759 2.64534,1.61537 4.12393,1.77349 0,0 0.70409,0.0589 0.70409,0.0589 0,0 0.2414,0.0182 0.2414,0.0182 0,0 1.04608,0 1.04608,0 0,0 0.24139,-0.0182 0.24139,-0.0182 0,0 0.70409,-0.0592 0.70409,-0.0592 1.91833,-0.22912 3.74897,-1.08288 4.71336,-2.83949 0.16576,-0.30195 0.29532,-0.61416 0.39046,-0.94548 0.095,-0.33092 0.18629,-0.86482 0.1869,-1.20701 0,0 0,-0.50292 0,-0.50292 0,0 -0.0182,-0.20116 -0.0182,-0.20116 -0.0233,-0.33415 -0.0759,-0.66305 -0.16858,-0.98573 -0.0927,-0.32307 -0.21103,-0.61637 -0.38443,-0.90526 -0.1376,-0.22933 -0.29391,-0.44781 -0.47658,-0.64375 -1.08429,-1.16414 -2.89923,-1.49628 -4.38364,-1.84832 0,0 -1.46853,-0.34702 -1.46853,-0.34702 -0.7077,-0.17199 -1.56267,-0.35364 -2.23297,-0.621 -0.41339,-0.16496 -0.81914,-0.40555 -1.01609,-0.82478 -0.0869,-0.18489 -0.12895,-0.38081 -0.14424,-0.58339 0,0 0.0137,-0.22128 0.0137,-0.22128 0,0 -3.2388,0 -3.2388,0 z"
       id="Selection"
       inkscape:connector-curvature="0" />
    <text
       transform="translate(-9.5248288,-34.003993)"
       id="text1195"
       y="125.15815"
       x="152.68172"
       style="font-style:normal;font-weight:normal;font-size:10.58333302px;line-height:1.25;font-family:sans-serif;text-align:center;letter-spacing:0px;word-spacing:0px;text-anchor:middle;fill:#ffffff;fill-opacity:1;stroke:#ffffff;stroke-width:0.26458332;stroke-opacity:1"
       xml:space="preserve"><tspan
         style="stroke-width:0.26458332"
         id="tspan1193"
         y="125.15815"
         x="152.68172"><tspan
           style="stroke-width:0.26458332"
           id="tspan1191"
           y="125.15815"
           x="152.68172">Salt</tspan></tspan></text>
  </g>
</svg>
